<?xml version="1.0" encoding="utf-8"?>
<!-- Generator: Adobe Illustrator 15.0.2, SVG Export Plug-In . SVG Version: 6.00 Build 0)  -->
<!DOCTYPE svg PUBLIC "-//W3C//DTD SVG 1.1//EN" "http://www.w3.org/Graphics/SVG/1.1/DTD/svg11.dtd">
<svg version="1.1" id="Layer_1" xmlns="http://www.w3.org/2000/svg" xmlns:xlink="http://www.w3.org/1999/xlink" x="0px" y="0px"
	 width="21px" height="21px" viewBox="0 0 21 21" enable-background="new 0 0 21 21" xml:space="preserve">
<path d="M18.527,17.256l-4.398-4.397h-0.906l-0.397-0.397c1.864-2.375,1.694-5.723-0.431-7.858c-2.307-2.301-6.029-2.301-8.34,0
	c-2.292,2.312-2.293,6.036,0,8.341c2.136,2.125,5.455,2.299,7.862,0.425l0.398,0.397v0.907l4.393,4.394
	c0.268,0.268,0.912,0.168,1.443-0.363C18.686,18.169,18.793,17.522,18.527,17.256z M11.217,11.746h-0.018v0.017
	c-1.65,1.635-4.31,1.633-5.958-0.007c-1.64-1.649-1.64-4.315-0.001-5.967c1.654-1.644,4.317-1.645,5.967-0.001
	C12.852,7.439,12.852,10.099,11.217,11.746z"/>
<rect fill="#4387FD" fill-opacity="0" width="21" height="21"/>
</svg>
